<svg width="30" height="30" viewBox="0 0 30 30" fill="none" xmlns="http://www.w3.org/2000/svg">
<g clip-path="url(#clip0_1023_44)">
<path d="M30 0H0V30H30V0Z" stroke="#595959" stroke-width="0.008"/>
<path d="M12.5625 12.8125C12.3737 12.8205 12.1883 12.8657 12.0169 12.9455C11.8456 13.0253 11.6917 13.138 11.5639 13.2773C11.4362 13.4167 11.3372 13.5798 11.2726 13.7574C11.2081 13.9351 11.1791 14.1237 11.1875 14.3125C11.1791 14.5013 11.2081 14.6899 11.2726 14.8676C11.3372 15.0452 11.4362 15.2083 11.5639 15.3477C11.6917 15.487 11.8456 15.5997 12.0169 15.6795C12.1883 15.7593 12.3737 15.8045 12.5625 15.8125C12.9603 15.8125 13.3419 15.6545 13.6232 15.3732C13.9045 15.0919 14.0625 14.7103 14.0625 14.3125C14.0625 13.9147 13.9045 13.5331 13.6232 13.2518C13.3419 12.9705 12.9603 12.8125 12.5625 12.8125Z" fill="#595959" stroke="#595959" stroke-width="0.008"/>
<path d="M17.5 12.8126C17.1993 12.7874 16.8979 12.8536 16.6354 13.0024C16.3728 13.1512 16.1613 13.3757 16.0284 13.6466C15.8954 13.9176 15.8473 14.2223 15.8903 14.521C15.9333 14.8197 16.0653 15.0985 16.2693 15.321C16.4732 15.5434 16.7395 15.6992 17.0333 15.7679C17.3272 15.8367 17.6349 15.8152 17.9164 15.7063C18.1978 15.5974 18.4398 15.4061 18.6109 15.1575C18.7819 14.9088 18.8739 14.6144 18.875 14.3126C18.8834 14.1238 18.8545 13.9352 18.7899 13.7575C18.7253 13.5799 18.6263 13.4168 18.4986 13.2774C18.3709 13.1381 18.2169 13.0253 18.0456 12.9456C17.8742 12.8658 17.6888 12.8206 17.5 12.8126Z" fill="#595959" stroke="#595959" stroke-width="0.008"/>
<path d="M24.0625 1.25H5.9375C5.19158 1.25 4.47621 1.54632 3.94876 2.07376C3.42132 2.60121 3.125 3.31658 3.125 4.0625V22.6875C3.125 23.4334 3.42132 24.1488 3.94876 24.6762C4.47621 25.2037 5.19158 25.5 5.9375 25.5H21.3125L20.5625 22.9375L22.3125 24.625L23.9375 26.125L26.875 28.75V4.0625C26.875 3.31658 26.5787 2.60121 26.0512 2.07376C25.5238 1.54632 24.8084 1.25 24.0625 1.25ZM18.875 19.1875L17.9375 18.0625C18.9375 17.8353 19.8239 17.2592 20.4375 16.4375C19.9431 16.7564 19.42 17.0285 18.875 17.25C18.2345 17.5344 17.5635 17.7442 16.875 17.875C15.7187 18.0947 14.5313 18.0947 13.375 17.875C12.6922 17.7224 12.0232 17.5134 11.375 17.25L10.375 16.8125H10.25C10.25 16.75 10.25 16.75 10.1875 16.75L9.8125 16.5C10.3948 17.2976 11.2331 17.8712 12.1875 18.125L11.3125 19.25C10.4994 19.2728 9.69301 19.0968 8.96329 18.7374C8.23358 18.378 7.60257 17.846 7.125 17.1875C7.16814 14.4026 7.85251 11.6651 9.125 9.1875C10.2067 8.30819 11.5445 7.80374 12.9375 7.75L13.0625 7.875C11.7613 8.22322 10.5476 8.8407 9.5 9.6875L10.3125 9.3125C11.2637 8.81691 12.3055 8.51925 13.375 8.4375H13.625C14.5184 8.34375 15.4191 8.34375 16.3125 8.4375C17.7656 8.57445 19.1724 9.02205 20.4375 9.75C19.4603 8.91751 18.306 8.31899 17.0625 8L17.25 7.8125C18.643 7.86624 19.9808 8.37069 21.0625 9.25C22.2989 11.7381 22.961 14.4719 23 17.25C23 17.25 21.875 19.125 18.875 19.1875Z" fill="#595959" stroke="#595959" stroke-width="0.008"/>
</g>
<defs>
<clipPath id="clip0_1023_44">
<rect width="30" height="30" fill="white"/>
</clipPath>
</defs>
</svg>
