<svg width="30" height="30" viewBox="0 0 30 30" fill="none" xmlns="http://www.w3.org/2000/svg">
<g clip-path="url(#clip0_1023_64)">
<path fill-rule="evenodd" clip-rule="evenodd" d="M30 15C30 23.2843 23.2843 30 15 30C6.71572 30 0 23.2843 0 15C0 6.71572 6.71572 0 15 0C23.2843 0 30 6.71572 30 15ZM15.5375 11.0737C14.0786 11.6805 11.1627 12.9365 6.78989 14.8416C6.07981 15.124 5.70785 15.4002 5.67399 15.6704C5.61675 16.1269 6.18841 16.3066 6.96686 16.5514C7.07275 16.5848 7.18248 16.6192 7.29495 16.6558C8.06083 16.9048 9.09105 17.196 9.62664 17.2075C10.1125 17.218 10.6547 17.0177 11.2533 16.6066C15.339 13.8488 17.448 12.4548 17.5804 12.4247C17.6739 12.4035 17.8033 12.3769 17.891 12.4548C17.9786 12.5328 17.9701 12.6804 17.9608 12.72C17.9041 12.9614 15.6601 15.0476 14.4989 16.1273C14.1369 16.4638 13.8801 16.7025 13.8276 16.757C13.71 16.8792 13.5901 16.9947 13.475 17.1057C12.7635 17.7916 12.2299 18.306 13.5045 19.146C14.1171 19.5496 14.6072 19.8834 15.0962 20.2164C15.6302 20.5801 16.1629 20.9429 16.852 21.3946C17.0276 21.5098 17.1952 21.6292 17.3586 21.7456C17.9801 22.1887 18.5385 22.5868 19.2283 22.5233C19.6291 22.4864 20.0431 22.1095 20.2534 20.9855C20.7502 18.329 21.727 12.5731 21.9528 10.2012C21.9726 9.99341 21.9478 9.72746 21.9277 9.61073C21.9077 9.49397 21.866 9.32764 21.7143 9.2045C21.5345 9.05867 21.2571 9.02793 21.133 9.0301C20.5688 9.04005 19.7033 9.34102 15.5375 11.0737Z" fill="#595959"/>
</g>
<defs>
<clipPath id="clip0_1023_64">
<rect width="30" height="30" fill="white"/>
</clipPath>
</defs>
</svg>
