<svg width="30" height="30" viewBox="0 0 30 30" fill="none" xmlns="http://www.w3.org/2000/svg">
<path fill-rule="evenodd" clip-rule="evenodd" d="M4.25 4.25C2.5 6.01666 2.5 8.84166 2.5 14.5V15.5C2.5 21.15 2.5 23.975 4.25 25.75C6.01666 27.5 8.84166 27.5 14.5 27.5H15.5C21.15 27.5 23.975 27.5 25.75 25.75C27.5 23.9834 27.5 21.1584 27.5 15.5V14.5C27.5 8.85 27.5 6.025 25.75 4.25C23.9834 2.5 21.1584 2.5 15.5 2.5H14.5C8.85 2.5 6.025 2.5 4.25 4.25ZM6.71666 10.1083C6.85 16.6084 10.1 20.5084 15.8 20.5084H16.1334V16.7916C18.225 17 19.8084 18.5334 20.4416 20.5084H23.4C23.0966 19.3861 22.5586 18.3409 21.8217 17.4416C21.0849 16.5425 20.1657 15.8097 19.125 15.2916C20.0576 14.7237 20.8631 13.9695 21.4911 13.0762C22.1191 12.183 22.5562 11.1698 22.775 10.1H20.0916C19.5084 12.1667 17.775 14.0416 16.1334 14.2166V10.1083H13.4416V17.3084C11.775 16.8916 9.675 14.875 9.58332 10.1083H6.71666Z" fill="#595959"/>
</svg>
